<svg xmlns="http://www.w3.org/2000/svg" width="1400" height="820" viewBox="0 0 1400 820" role="img" aria-labelledby="title desc">
  <title id="title">Seb Builds agentic project refresh</title>
  <desc id="desc">Terminal-style Seb Builds visual showing Codex, Claude Code, Harness AI DevOps, Hermes, OpenClaw, MCP, and public build logs.</desc>
  <defs>
    <linearGradient id="bg" x1="0" x2="1" y1="0" y2="1">
      <stop offset="0" stop-color="#07110d"/>
      <stop offset="0.55" stop-color="#101712"/>
      <stop offset="1" stop-color="#0b0d0a"/>
    </linearGradient>
    <linearGradient id="panel" x1="0" x2="1" y1="0" y2="1">
      <stop offset="0" stop-color="#10241b"/>
      <stop offset="1" stop-color="#090d0b"/>
    </linearGradient>
    <filter id="glow" x="-20%" y="-20%" width="140%" height="140%">
      <feGaussianBlur stdDeviation="8" result="blur"/>
      <feMerge>
        <feMergeNode in="blur"/>
        <feMergeNode in="SourceGraphic"/>
      </feMerge>
    </filter>
  </defs>
  <rect width="1400" height="820" fill="url(#bg)"/>
  <path d="M0 620 C230 560 390 720 620 660 C870 596 1010 520 1400 590 L1400 820 L0 820 Z" fill="#10241b" opacity="0.6"/>
  <g opacity="0.14" stroke="#78ffad" stroke-width="1">
    <path d="M120 130 H1280"/>
    <path d="M120 230 H1280"/>
    <path d="M120 330 H1280"/>
    <path d="M120 430 H1280"/>
    <path d="M120 530 H1280"/>
    <path d="M120 630 H1280"/>
    <path d="M240 90 V700"/>
    <path d="M440 90 V700"/>
    <path d="M640 90 V700"/>
    <path d="M840 90 V700"/>
    <path d="M1040 90 V700"/>
    <path d="M1240 90 V700"/>
  </g>
  <rect x="96" y="82" width="1208" height="656" rx="22" fill="url(#panel)" stroke="#2a4e3a" stroke-width="2"/>
  <rect x="96" y="82" width="1208" height="58" rx="22" fill="#101b15"/>
  <circle cx="132" cy="112" r="8" fill="#ff6b6b"/>
  <circle cx="160" cy="112" r="8" fill="#ffd166"/>
  <circle cx="188" cy="112" r="8" fill="#78ffad"/>
  <text x="226" y="119" fill="#9ab8a4" font-family="ui-monospace, SFMono-Regular, Menlo, monospace" font-size="18">seb@sebmer.com ~/build-log % ship agentic-context</text>
  <text x="148" y="220" fill="#e7ffef" font-family="ui-monospace, SFMono-Regular, Menlo, monospace" font-size="62" font-weight="700">SEB BUILDS</text>
  <text x="150" y="270" fill="#78ffad" font-family="ui-monospace, SFMono-Regular, Menlo, monospace" font-size="28">project copy refresh / public agent context</text>
  <g font-family="ui-monospace, SFMono-Regular, Menlo, monospace" font-size="23">
    <text x="156" y="354" fill="#e7ffef">[01] Codex + Claude Code orchestration</text>
    <text x="156" y="402" fill="#e7ffef">[02] Harness-style AI DevOps agents</text>
    <text x="156" y="450" fill="#e7ffef">[03] Hermes / OpenClaw / MCP workflows</text>
    <text x="156" y="498" fill="#e7ffef">[04] public logs, demos, repos, context</text>
  </g>
  <g transform="translate(850 210)">
    <rect x="0" y="0" width="324" height="324" rx="24" fill="#07110d" stroke="#315d44" stroke-width="2"/>
    <g filter="url(#glow)">
      <circle cx="162" cy="162" r="80" fill="none" stroke="#78ffad" stroke-width="3"/>
      <path d="M162 64 V260" stroke="#78ffad" stroke-width="3"/>
      <path d="M64 162 H260" stroke="#78ffad" stroke-width="3"/>
      <path d="M102 102 L222 222" stroke="#78ffad" stroke-width="3"/>
      <path d="M222 102 L102 222" stroke="#78ffad" stroke-width="3"/>
    </g>
    <text x="73" y="304" fill="#9ab8a4" font-family="ui-monospace, SFMono-Regular, Menlo, monospace" font-size="18">context graph online</text>
  </g>
  <g font-family="ui-monospace, SFMono-Regular, Menlo, monospace" font-size="18">
    <rect x="148" y="584" width="156" height="42" rx="8" fill="#122a1e" stroke="#315d44"/>
    <text x="174" y="611" fill="#78ffad">Elson.ai</text>
    <rect x="324" y="584" width="172" height="42" rx="8" fill="#122a1e" stroke="#315d44"/>
    <text x="350" y="611" fill="#78ffad">Gairvis</text>
    <rect x="516" y="584" width="188" height="42" rx="8" fill="#122a1e" stroke="#315d44"/>
    <text x="542" y="611" fill="#78ffad">Lovalingo</text>
    <rect x="724" y="584" width="224" height="42" rx="8" fill="#122a1e" stroke="#315d44"/>
    <text x="750" y="611" fill="#78ffad">Von Thomas</text>
    <rect x="968" y="584" width="176" height="42" rx="8" fill="#122a1e" stroke="#315d44"/>
    <text x="994" y="611" fill="#78ffad">Build Log</text>
  </g>
  <text x="148" y="684" fill="#9ab8a4" font-family="ui-monospace, SFMono-Regular, Menlo, monospace" font-size="22">2026-05-03 - sharper project pages, public links, agent-readable context</text>
</svg>
